<?xml version="1.0" encoding="utf-8"?>
<!-- Generator: Adobe Illustrator 16.0.0, SVG Export Plug-In . SVG Version: 6.00 Build 0)  -->
<!DOCTYPE svg PUBLIC "-//W3C//DTD SVG 1.1//EN" "http://www.w3.org/Graphics/SVG/1.1/DTD/svg11.dtd">
<svg version="1.1" id="圖層_1" xmlns="http://www.w3.org/2000/svg" xmlns:xlink="http://www.w3.org/1999/xlink" x="0px" y="0px"
	 width="64px" height="64px" viewBox="0 0 64 64" enable-background="new 0 0 64 64" xml:space="preserve">
<path d="M22,47c1.354,0,2.5,1.146,2.5,2.5S23.354,52,22,52s-2.5-1.146-2.5-2.5S20.646,47,22,47z M45.334,47
	c1.354,0,2.5,1.146,2.5,2.5s-1.146,2.5-2.5,2.5c-1.355,0-2.5-1.146-2.5-2.5S43.979,47,45.334,47z M52,18.667L50.334,32l-28.23,5
	l0.521,3.125c0.729,3.541,2.188,3.541,2.708,3.541h25v1.668h-25c-1.146,0-2.188-0.521-2.917-1.459
	c-0.625-0.834-1.146-1.979-1.354-3.438l-4.479-24.375l0,0c-0.208-0.833-0.313-1.25-0.729-1.667
	c-0.625-0.521-1.875-0.729-3.854-0.729V12c2.396,0,3.958,0.417,4.896,1.146c0.729,0.625,1.042,1.458,1.25,2.188L52,18.667z"/>
</svg>
