<?xml version="1.0" standalone="no"?>
<svg width="64" height="64" viewBox="0 0 1024 768" version="1.1" xmlns="http://www.w3.org/2000/svg">
  <path d="M512 811q-115 0 -213.5 -57.5t-156 -156t-57.5 -213.5t57.5 -213.5t156 -156t213.5 -57.5t213.5 57.5t156 156t57.5 213.5t-57.5 213.5t-156 156t-213.5 57.5zM512 683q54 0 91 -37t37 -91.5t-37 -91t-91 -36.5t-91 36.5t-37 91t37 91.5t91 37zM512 77q-78 0 -145.5 37    t-110.5 99q0 31 27.5 57t68.5 42t83.5 25t76.5 9t76.5 -9t83.5 -25t68.5 -42t27.5 -57q-43 -62 -110.5 -99t-145.5 -37z" transform="matrix(1,0,0,-1,0,768)"/>
</svg>